<?xml version="1.0" encoding="UTF-8" standalone="no"?>
<!DOCTYPE svg PUBLIC "-//W3C//DTD SVG 1.1//EN"
 "http://www.w3.org/Graphics/SVG/1.1/DTD/svg11.dtd">
<!-- Generated by graphviz version 2.40.1 (20161225.0304)
 -->
<!-- Title: dependencies Pages: 1 -->
<svg width="825pt" height="284pt"
 viewBox="0.00 0.00 825.00 284.00" xmlns="http://www.w3.org/2000/svg" xmlns:xlink="http://www.w3.org/1999/xlink">
<g id="graph0" class="graph" transform="scale(1 1) rotate(0) translate(4 280)">
<title>dependencies</title>
<polygon fill="#ffffff" stroke="transparent" points="-4,4 -4,-280 821,-280 821,4 -4,4"/>
<text text-anchor="start" x="387.5091" y="-42.4" font-family="sans-serif" font-weight="bold" font-size="14.00" fill="#000000">Legend</text>
<polygon fill="#ffffb3" stroke="transparent" points="174.5,-10 174.5,-30 194.5,-30 194.5,-10 174.5,-10"/>
<text text-anchor="start" x="198.129" y="-15.4" font-family="sans-serif" font-size="14.00" fill="#000000"> &#160;Declarations</text>
<polygon fill="#8dd3c7" stroke="transparent" points="287.5,-10 287.5,-30 307.5,-30 307.5,-10 287.5,-10"/>
<text text-anchor="start" x="311.2251" y="-15.4" font-family="sans-serif" font-size="14.00" fill="#000000"> &#160;Module</text>
<polygon fill="#80b1d3" stroke="transparent" points="373.5,-10 373.5,-30 393.5,-30 393.5,-10 373.5,-10"/>
<text text-anchor="start" x="397.2812" y="-15.4" font-family="sans-serif" font-size="14.00" fill="#000000"> &#160;Bootstrap</text>
<polygon fill="#fdb462" stroke="transparent" points="470.5,-10 470.5,-30 490.5,-30 490.5,-10 470.5,-10"/>
<text text-anchor="start" x="494.1732" y="-15.4" font-family="sans-serif" font-size="14.00" fill="#000000"> &#160;Providers</text>
<polygon fill="#fb8072" stroke="transparent" points="566.5,-10 566.5,-30 586.5,-30 586.5,-10 566.5,-10"/>
<text text-anchor="start" x="590.2258" y="-15.4" font-family="sans-serif" font-size="14.00" fill="#000000"> &#160;Exports</text>
<g id="clust1" class="cluster">
<title>cluster_CoreModule</title>
<polygon fill="none" stroke="#000000" stroke-dasharray="1,5" points="8,-70 8,-268 809,-268 809,-70 8,-70"/>
</g>
<g id="clust2" class="cluster">
<title>cluster_CoreModule_declarations</title>
<polygon fill="none" stroke="#000000" points="356,-78 356,-130 801,-130 801,-78 356,-78"/>
</g>
<g id="clust5" class="cluster">
<title>cluster_CoreModule_imports</title>
<polygon fill="none" stroke="#000000" points="200,-78 200,-130 348,-130 348,-78 200,-78"/>
</g>
<g id="clust6" class="cluster">
<title>cluster_CoreModule_exports</title>
<polygon fill="none" stroke="#000000" points="128,-208 128,-260 580,-260 580,-208 128,-208"/>
</g>
<g id="clust8" class="cluster">
<title>cluster_CoreModule_providers</title>
<polygon fill="none" stroke="#000000" points="16,-78 16,-130 192,-130 192,-78 16,-78"/>
</g>
<!-- PageNotFoundComponentComponent -->
<g id="node1" class="node">
<title>PageNotFoundComponentComponent</title>
<polygon fill="#ffffb3" stroke="#000000" points="793.1567,-122 562.8433,-122 562.8433,-86 793.1567,-86 793.1567,-122"/>
<text text-anchor="middle" x="678" y="-99.8" font-family="Times,serif" font-size="14.00" fill="#000000">PageNotFoundComponentComponent</text>
</g>
<!-- CoreModule -->
<g id="node3" class="node">
<title>CoreModule</title>
<polygon fill="#8dd3c7" stroke="#000000" points="407.2619,-187 404.2619,-191 383.2619,-191 380.2619,-187 320.7381,-187 320.7381,-151 407.2619,-151 407.2619,-187"/>
<text text-anchor="middle" x="364" y="-164.8" font-family="Times,serif" font-size="14.00" fill="#000000">CoreModule</text>
</g>
<!-- PageNotFoundComponentComponent&#45;&gt;CoreModule -->
<g id="edge1" class="edge">
<title>PageNotFoundComponentComponent&#45;&gt;CoreModule</title>
<path fill="none" stroke="#000000" d="M567.4301,-122.1061C567.4301,-141.3391 567.4301,-169 567.4301,-169 567.4301,-169 417.3913,-169 417.3913,-169"/>
<polygon fill="#000000" stroke="#000000" points="417.3914,-165.5001 407.3913,-169 417.3913,-172.5001 417.3914,-165.5001"/>
</g>
<!-- HomeComponentComponent -->
<g id="node2" class="node">
<title>HomeComponentComponent</title>
<polygon fill="#ffffb3" stroke="#000000" points="544.3766,-122 363.6234,-122 363.6234,-86 544.3766,-86 544.3766,-122"/>
<text text-anchor="middle" x="454" y="-99.8" font-family="Times,serif" font-size="14.00" fill="#000000">HomeComponentComponent</text>
</g>
<!-- HomeComponentComponent&#45;&gt;CoreModule -->
<g id="edge2" class="edge">
<title>HomeComponentComponent&#45;&gt;CoreModule</title>
<path fill="none" stroke="#000000" d="M385.4713,-122.1061C385.4713,-122.1061 385.4713,-140.991 385.4713,-140.991"/>
<polygon fill="#000000" stroke="#000000" points="381.9713,-140.9909 385.4713,-150.991 388.9713,-140.991 381.9713,-140.9909"/>
</g>
<!-- HomeComponentComponent  -->
<g id="node5" class="node">
<title>HomeComponentComponent </title>
<polygon fill="#fb8072" stroke="#000000" points="572.377,-252 387.623,-252 387.623,-216 572.377,-216 572.377,-252"/>
<text text-anchor="middle" x="480" y="-229.8" font-family="Times,serif" font-size="14.00" fill="#000000">HomeComponentComponent </text>
</g>
<!-- CoreModule&#45;&gt;HomeComponentComponent  -->
<g id="edge4" class="edge">
<title>CoreModule&#45;&gt;HomeComponentComponent </title>
<path fill="none" stroke="#000000" stroke-dasharray="5,2" d="M397.5963,-187.1061C397.5963,-187.1061 397.5963,-205.991 397.5963,-205.991"/>
<polygon fill="#000000" stroke="#000000" points="394.0963,-205.9909 397.5963,-215.991 401.0963,-205.991 394.0963,-205.9909"/>
</g>
<!-- PageNotFoundComponentComponent  -->
<g id="node6" class="node">
<title>PageNotFoundComponentComponent </title>
<polygon fill="#fb8072" stroke="#000000" points="370.1565,-252 135.8435,-252 135.8435,-216 370.1565,-216 370.1565,-252"/>
<text text-anchor="middle" x="253" y="-229.8" font-family="Times,serif" font-size="14.00" fill="#000000">PageNotFoundComponentComponent </text>
</g>
<!-- CoreModule&#45;&gt;PageNotFoundComponentComponent  -->
<g id="edge5" class="edge">
<title>CoreModule&#45;&gt;PageNotFoundComponentComponent </title>
<path fill="none" stroke="#000000" stroke-dasharray="5,2" d="M345.3487,-187.1061C345.3487,-187.1061 345.3487,-205.991 345.3487,-205.991"/>
<polygon fill="#000000" stroke="#000000" points="341.8488,-205.9909 345.3487,-215.991 348.8488,-205.991 341.8488,-205.9909"/>
</g>
<!-- CoreRootingModule -->
<g id="node4" class="node">
<title>CoreRootingModule</title>
<polygon fill="#8dd3c7" stroke="#000000" points="339.8795,-122 336.8795,-126 315.8795,-126 312.8795,-122 208.1205,-122 208.1205,-86 339.8795,-86 339.8795,-122"/>
<text text-anchor="middle" x="274" y="-99.8" font-family="Times,serif" font-size="14.00" fill="#000000">CoreRootingModule</text>
</g>
<!-- CoreRootingModule&#45;&gt;CoreModule -->
<g id="edge3" class="edge">
<title>CoreRootingModule&#45;&gt;CoreModule</title>
<path fill="none" stroke="#000000" d="M330.2795,-122.1061C330.2795,-122.1061 330.2795,-140.991 330.2795,-140.991"/>
<polygon fill="#000000" stroke="#000000" points="326.7795,-140.9909 330.2795,-150.991 333.7795,-140.991 326.7795,-140.9909"/>
</g>
<!-- CollectionService -->
<g id="node7" class="node">
<title>CollectionService</title>
<ellipse fill="#fdb462" stroke="#000000" cx="104" cy="-104" rx="80.4519" ry="18"/>
<text text-anchor="middle" x="104" y="-99.8" font-family="Times,serif" font-size="14.00" fill="#000000">CollectionService</text>
</g>
<!-- CollectionService&#45;&gt;CoreModule -->
<g id="edge6" class="edge">
<title>CollectionService&#45;&gt;CoreModule</title>
<path fill="none" stroke="#000000" d="M160.0737,-117.1537C160.0737,-136.1469 160.0737,-169 160.0737,-169 160.0737,-169 310.5028,-169 310.5028,-169"/>
<polygon fill="#000000" stroke="#000000" points="310.5029,-172.5001 320.5028,-169 310.5028,-165.5001 310.5029,-172.5001"/>
</g>
</g>
</svg>
