<?xml version="1.0" encoding="UTF-8" standalone="no"?>
<!DOCTYPE svg PUBLIC "-//W3C//DTD SVG 1.1//EN"
 "http://www.w3.org/Graphics/SVG/1.1/DTD/svg11.dtd">
<!-- Generated by graphviz version 2.40.1 (20161225.0304)
 -->
<!-- Title: dependencies Pages: 1 -->
<svg width="550pt" height="284pt"
 viewBox="0.00 0.00 550.00 284.00" xmlns="http://www.w3.org/2000/svg" xmlns:xlink="http://www.w3.org/1999/xlink">
<g id="graph0" class="graph" transform="scale(1 1) rotate(0) translate(4 280)">
<title>dependencies</title>
<polygon fill="#ffffff" stroke="transparent" points="-4,4 -4,-280 546,-280 546,4 -4,4"/>
<text text-anchor="start" x="250.0091" y="-42.4" font-family="sans-serif" font-weight="bold" font-size="14.00" fill="#000000">Legend</text>
<polygon fill="#ffffb3" stroke="transparent" points="37,-10 37,-30 57,-30 57,-10 37,-10"/>
<text text-anchor="start" x="60.629" y="-15.4" font-family="sans-serif" font-size="14.00" fill="#000000"> &#160;Declarations</text>
<polygon fill="#8dd3c7" stroke="transparent" points="150,-10 150,-30 170,-30 170,-10 150,-10"/>
<text text-anchor="start" x="173.7251" y="-15.4" font-family="sans-serif" font-size="14.00" fill="#000000"> &#160;Module</text>
<polygon fill="#80b1d3" stroke="transparent" points="236,-10 236,-30 256,-30 256,-10 236,-10"/>
<text text-anchor="start" x="259.7812" y="-15.4" font-family="sans-serif" font-size="14.00" fill="#000000"> &#160;Bootstrap</text>
<polygon fill="#fdb462" stroke="transparent" points="333,-10 333,-30 353,-30 353,-10 333,-10"/>
<text text-anchor="start" x="356.6732" y="-15.4" font-family="sans-serif" font-size="14.00" fill="#000000"> &#160;Providers</text>
<polygon fill="#fb8072" stroke="transparent" points="429,-10 429,-30 449,-30 449,-10 429,-10"/>
<text text-anchor="start" x="452.7258" y="-15.4" font-family="sans-serif" font-size="14.00" fill="#000000"> &#160;Exports</text>
<g id="clust1" class="cluster">
<title>cluster_SharedModule</title>
<polygon fill="none" stroke="#000000" stroke-dasharray="1,5" points="8,-70 8,-268 534,-268 534,-70 8,-70"/>
</g>
<g id="clust2" class="cluster">
<title>cluster_SharedModule_declarations</title>
<polygon fill="none" stroke="#000000" points="16,-78 16,-130 526,-130 526,-78 16,-78"/>
</g>
<g id="clust8" class="cluster">
<title>cluster_SharedModule_exports</title>
<polygon fill="none" stroke="#000000" points="83,-208 83,-260 468,-260 468,-208 83,-208"/>
</g>
<!-- MenuComponent -->
<g id="node1" class="node">
<title>MenuComponent</title>
<polygon fill="#ffffb3" stroke="#000000" points="517.9916,-122 404.0084,-122 404.0084,-86 517.9916,-86 517.9916,-122"/>
<text text-anchor="middle" x="461" y="-99.8" font-family="Times,serif" font-size="14.00" fill="#000000">MenuComponent</text>
</g>
<!-- SharedModule -->
<g id="node5" class="node">
<title>SharedModule</title>
<polygon fill="#8dd3c7" stroke="#000000" points="323.4231,-187 320.4231,-191 299.4231,-191 296.4231,-187 224.5769,-187 224.5769,-151 323.4231,-151 323.4231,-187"/>
<text text-anchor="middle" x="274" y="-164.8" font-family="Times,serif" font-size="14.00" fill="#000000">SharedModule</text>
</g>
<!-- MenuComponent&#45;&gt;SharedModule -->
<g id="edge1" class="edge">
<title>MenuComponent&#45;&gt;SharedModule</title>
<path fill="none" stroke="#000000" d="M431.875,-122.0225C431.875,-139.3734 431.875,-163 431.875,-163 431.875,-163 333.5195,-163 333.5195,-163"/>
<polygon fill="#000000" stroke="#000000" points="333.5195,-159.5001 323.5195,-163 333.5194,-166.5001 333.5195,-159.5001"/>
</g>
<!-- StateDirective -->
<g id="node2" class="node">
<title>StateDirective</title>
<polygon fill="#ffffb3" stroke="#000000" points="386.0758,-122 289.9242,-122 289.9242,-86 386.0758,-86 386.0758,-122"/>
<text text-anchor="middle" x="338" y="-99.8" font-family="Times,serif" font-size="14.00" fill="#000000">StateDirective</text>
</g>
<!-- StateDirective&#45;&gt;SharedModule -->
<g id="edge2" class="edge">
<title>StateDirective&#45;&gt;SharedModule</title>
<path fill="none" stroke="#000000" d="M306.5866,-122.1061C306.5866,-122.1061 306.5866,-140.991 306.5866,-140.991"/>
<polygon fill="#000000" stroke="#000000" points="303.0867,-140.9909 306.5866,-150.991 310.0867,-140.991 303.0867,-140.9909"/>
</g>
<!-- FormComponent -->
<g id="node3" class="node">
<title>FormComponent</title>
<polygon fill="#ffffb3" stroke="#000000" points="271.6667,-122 160.3333,-122 160.3333,-86 271.6667,-86 271.6667,-122"/>
<text text-anchor="middle" x="216" y="-99.8" font-family="Times,serif" font-size="14.00" fill="#000000">FormComponent</text>
</g>
<!-- FormComponent&#45;&gt;SharedModule -->
<g id="edge3" class="edge">
<title>FormComponent&#45;&gt;SharedModule</title>
<path fill="none" stroke="#000000" d="M248.311,-122.1061C248.311,-122.1061 248.311,-140.991 248.311,-140.991"/>
<polygon fill="#000000" stroke="#000000" points="244.8111,-140.9909 248.311,-150.991 251.8111,-140.991 244.8111,-140.9909"/>
</g>
<!-- ModalComponent -->
<g id="node4" class="node">
<title>ModalComponent</title>
<polygon fill="#ffffb3" stroke="#000000" points="141.8823,-122 24.1177,-122 24.1177,-86 141.8823,-86 141.8823,-122"/>
<text text-anchor="middle" x="83" y="-99.8" font-family="Times,serif" font-size="14.00" fill="#000000">ModalComponent</text>
</g>
<!-- ModalComponent&#45;&gt;SharedModule -->
<g id="edge4" class="edge">
<title>ModalComponent&#45;&gt;SharedModule</title>
<path fill="none" stroke="#000000" d="M116.679,-122.0225C116.679,-139.3734 116.679,-163 116.679,-163 116.679,-163 214.6543,-163 214.6543,-163"/>
<polygon fill="#000000" stroke="#000000" points="214.6543,-166.5001 224.6543,-163 214.6543,-159.5001 214.6543,-166.5001"/>
</g>
<!-- MenuComponent  -->
<g id="node6" class="node">
<title>MenuComponent </title>
<polygon fill="#fb8072" stroke="#000000" points="459.9926,-252 342.0074,-252 342.0074,-216 459.9926,-216 459.9926,-252"/>
<text text-anchor="middle" x="401" y="-229.8" font-family="Times,serif" font-size="14.00" fill="#000000">MenuComponent </text>
</g>
<!-- SharedModule&#45;&gt;MenuComponent  -->
<g id="edge5" class="edge">
<title>SharedModule&#45;&gt;MenuComponent </title>
<path fill="none" stroke="#000000" stroke-dasharray="5,2" d="M323.2931,-175C344.3386,-175 364.1461,-175 364.1461,-175 364.1461,-175 364.1461,-205.9775 364.1461,-205.9775"/>
<polygon fill="#000000" stroke="#000000" points="360.6461,-205.9774 364.1461,-215.9775 367.6461,-205.9775 360.6461,-205.9774"/>
</g>
<!-- StateDirective  -->
<g id="node7" class="node">
<title>StateDirective </title>
<polygon fill="#fb8072" stroke="#000000" points="323.5767,-252 224.4233,-252 224.4233,-216 323.5767,-216 323.5767,-252"/>
<text text-anchor="middle" x="274" y="-229.8" font-family="Times,serif" font-size="14.00" fill="#000000">StateDirective </text>
</g>
<!-- SharedModule&#45;&gt;StateDirective  -->
<g id="edge6" class="edge">
<title>SharedModule&#45;&gt;StateDirective </title>
<path fill="none" stroke="#000000" stroke-dasharray="5,2" d="M274,-187.1061C274,-187.1061 274,-205.991 274,-205.991"/>
<polygon fill="#000000" stroke="#000000" points="270.5001,-205.9909 274,-215.991 277.5001,-205.991 270.5001,-205.9909"/>
</g>
<!-- FormComponent  -->
<g id="node8" class="node">
<title>FormComponent </title>
<polygon fill="#fb8072" stroke="#000000" points="206.6663,-252 91.3337,-252 91.3337,-216 206.6663,-216 206.6663,-252"/>
<text text-anchor="middle" x="149" y="-229.8" font-family="Times,serif" font-size="14.00" fill="#000000">FormComponent </text>
</g>
<!-- SharedModule&#45;&gt;FormComponent  -->
<g id="edge7" class="edge">
<title>SharedModule&#45;&gt;FormComponent </title>
<path fill="none" stroke="#000000" stroke-dasharray="5,2" d="M224.7095,-175C203.454,-175 183.375,-175 183.375,-175 183.375,-175 183.375,-205.9775 183.375,-205.9775"/>
<polygon fill="#000000" stroke="#000000" points="179.8751,-205.9774 183.375,-215.9775 186.8751,-205.9775 179.8751,-205.9774"/>
</g>
</g>
</svg>
