<?xml version="1.0" encoding="UTF-8" standalone="no"?>
<!DOCTYPE svg PUBLIC "-//W3C//DTD SVG 1.1//EN"
 "http://www.w3.org/Graphics/SVG/1.1/DTD/svg11.dtd">
<!-- Generated by graphviz version 2.40.1 (20161225.0304)
 -->
<!-- Title: dependencies Pages: 1 -->
<svg width="709pt" height="284pt"
 viewBox="0.00 0.00 709.00 284.00" xmlns="http://www.w3.org/2000/svg" xmlns:xlink="http://www.w3.org/1999/xlink">
<g id="graph0" class="graph" transform="scale(1 1) rotate(0) translate(4 280)">
<title>dependencies</title>
<polygon fill="#ffffff" stroke="transparent" points="-4,4 -4,-280 705,-280 705,4 -4,4"/>
<text text-anchor="start" x="329.5091" y="-42.4" font-family="sans-serif" font-weight="bold" font-size="14.00" fill="#000000">Legend</text>
<polygon fill="#ffffb3" stroke="transparent" points="116.5,-10 116.5,-30 136.5,-30 136.5,-10 116.5,-10"/>
<text text-anchor="start" x="140.129" y="-15.4" font-family="sans-serif" font-size="14.00" fill="#000000"> &#160;Declarations</text>
<polygon fill="#8dd3c7" stroke="transparent" points="229.5,-10 229.5,-30 249.5,-30 249.5,-10 229.5,-10"/>
<text text-anchor="start" x="253.2251" y="-15.4" font-family="sans-serif" font-size="14.00" fill="#000000"> &#160;Module</text>
<polygon fill="#80b1d3" stroke="transparent" points="315.5,-10 315.5,-30 335.5,-30 335.5,-10 315.5,-10"/>
<text text-anchor="start" x="339.2812" y="-15.4" font-family="sans-serif" font-size="14.00" fill="#000000"> &#160;Bootstrap</text>
<polygon fill="#fdb462" stroke="transparent" points="412.5,-10 412.5,-30 432.5,-30 432.5,-10 412.5,-10"/>
<text text-anchor="start" x="436.1732" y="-15.4" font-family="sans-serif" font-size="14.00" fill="#000000"> &#160;Providers</text>
<polygon fill="#fb8072" stroke="transparent" points="508.5,-10 508.5,-30 528.5,-30 528.5,-10 508.5,-10"/>
<text text-anchor="start" x="532.2258" y="-15.4" font-family="sans-serif" font-size="14.00" fill="#000000"> &#160;Exports</text>
<g id="clust1" class="cluster">
<title>cluster_ItemsModule</title>
<polygon fill="none" stroke="#000000" stroke-dasharray="1,5" points="8,-70 8,-268 693,-268 693,-70 8,-70"/>
</g>
<g id="clust2" class="cluster">
<title>cluster_ItemsModule_declarations</title>
<polygon fill="none" stroke="#000000" points="286,-78 286,-130 685,-130 685,-78 286,-78"/>
</g>
<g id="clust6" class="cluster">
<title>cluster_ItemsModule_imports</title>
<polygon fill="none" stroke="#000000" points="16,-78 16,-130 278,-130 278,-78 16,-78"/>
</g>
<g id="clust7" class="cluster">
<title>cluster_ItemsModule_exports</title>
<polygon fill="none" stroke="#000000" points="270,-208 270,-260 424,-260 424,-208 270,-208"/>
</g>
<!-- ListItemsComponent -->
<g id="node1" class="node">
<title>ListItemsComponent</title>
<polygon fill="#ffffb3" stroke="#000000" points="677.212,-122 542.788,-122 542.788,-86 677.212,-86 677.212,-122"/>
<text text-anchor="middle" x="610" y="-99.8" font-family="Times,serif" font-size="14.00" fill="#000000">ListItemsComponent</text>
</g>
<!-- ItemsModule -->
<g id="node4" class="node">
<title>ItemsModule</title>
<polygon fill="#8dd3c7" stroke="#000000" points="392.1515,-187 389.1515,-191 368.1515,-191 365.1515,-187 301.8485,-187 301.8485,-151 392.1515,-151 392.1515,-187"/>
<text text-anchor="middle" x="347" y="-164.8" font-family="Times,serif" font-size="14.00" fill="#000000">ItemsModule</text>
</g>
<!-- ListItemsComponent&#45;&gt;ItemsModule -->
<g id="edge1" class="edge">
<title>ListItemsComponent&#45;&gt;ItemsModule</title>
<path fill="none" stroke="#000000" d="M610,-122.2843C610,-143.3211 610,-175 610,-175 610,-175 402.2113,-175 402.2113,-175"/>
<polygon fill="#000000" stroke="#000000" points="402.2113,-171.5001 392.2113,-175 402.2113,-178.5001 402.2113,-171.5001"/>
</g>
<!-- ItemComponent -->
<g id="node2" class="node">
<title>ItemComponent</title>
<polygon fill="#ffffb3" stroke="#000000" points="524.4888,-122 417.5112,-122 417.5112,-86 524.4888,-86 524.4888,-122"/>
<text text-anchor="middle" x="471" y="-99.8" font-family="Times,serif" font-size="14.00" fill="#000000">ItemComponent</text>
</g>
<!-- ItemComponent&#45;&gt;ItemsModule -->
<g id="edge2" class="edge">
<title>ItemComponent&#45;&gt;ItemsModule</title>
<path fill="none" stroke="#000000" d="M471,-122.0225C471,-139.3734 471,-163 471,-163 471,-163 402.4689,-163 402.4689,-163"/>
<polygon fill="#000000" stroke="#000000" points="402.4689,-159.5001 392.4689,-163 402.4689,-166.5001 402.4689,-159.5001"/>
</g>
<!-- AddComponent -->
<g id="node3" class="node">
<title>AddComponent</title>
<polygon fill="#ffffb3" stroke="#000000" points="399.9399,-122 294.0601,-122 294.0601,-86 399.9399,-86 399.9399,-122"/>
<text text-anchor="middle" x="347" y="-99.8" font-family="Times,serif" font-size="14.00" fill="#000000">AddComponent</text>
</g>
<!-- AddComponent&#45;&gt;ItemsModule -->
<g id="edge3" class="edge">
<title>AddComponent&#45;&gt;ItemsModule</title>
<path fill="none" stroke="#000000" d="M347,-122.1061C347,-122.1061 347,-140.991 347,-140.991"/>
<polygon fill="#000000" stroke="#000000" points="343.5001,-140.9909 347,-150.991 350.5001,-140.991 343.5001,-140.9909"/>
</g>
<!-- ListItemsComponent  -->
<g id="node7" class="node">
<title>ListItemsComponent </title>
<polygon fill="#fb8072" stroke="#000000" points="415.7121,-252 278.2879,-252 278.2879,-216 415.7121,-216 415.7121,-252"/>
<text text-anchor="middle" x="347" y="-229.8" font-family="Times,serif" font-size="14.00" fill="#000000">ListItemsComponent </text>
</g>
<!-- ItemsModule&#45;&gt;ListItemsComponent  -->
<g id="edge6" class="edge">
<title>ItemsModule&#45;&gt;ListItemsComponent </title>
<path fill="none" stroke="#000000" stroke-dasharray="5,2" d="M347,-187.1061C347,-187.1061 347,-205.991 347,-205.991"/>
<polygon fill="#000000" stroke="#000000" points="343.5001,-205.9909 347,-215.991 350.5001,-205.991 343.5001,-205.9909"/>
</g>
<!-- SharedModule -->
<g id="node5" class="node">
<title>SharedModule</title>
<polygon fill="#8dd3c7" stroke="#000000" points="270.4231,-122 267.4231,-126 246.4231,-126 243.4231,-122 171.5769,-122 171.5769,-86 270.4231,-86 270.4231,-122"/>
<text text-anchor="middle" x="221" y="-99.8" font-family="Times,serif" font-size="14.00" fill="#000000">SharedModule</text>
</g>
<!-- SharedModule&#45;&gt;ItemsModule -->
<g id="edge4" class="edge">
<title>SharedModule&#45;&gt;ItemsModule</title>
<path fill="none" stroke="#000000" d="M221,-122.0225C221,-139.3734 221,-163 221,-163 221,-163 291.5111,-163 291.5111,-163"/>
<polygon fill="#000000" stroke="#000000" points="291.5111,-166.5001 301.5111,-163 291.5111,-159.5001 291.5111,-166.5001"/>
</g>
<!-- ItemRoutingModule -->
<g id="node6" class="node">
<title>ItemRoutingModule</title>
<polygon fill="#8dd3c7" stroke="#000000" points="154.3244,-122 151.3244,-126 130.3244,-126 127.3244,-122 23.6756,-122 23.6756,-86 154.3244,-86 154.3244,-122"/>
<text text-anchor="middle" x="89" y="-99.8" font-family="Times,serif" font-size="14.00" fill="#000000">ItemRoutingModule</text>
</g>
<!-- ItemRoutingModule&#45;&gt;ItemsModule -->
<g id="edge5" class="edge">
<title>ItemRoutingModule&#45;&gt;ItemsModule</title>
<path fill="none" stroke="#000000" d="M89,-122.2843C89,-143.3211 89,-175 89,-175 89,-175 291.7646,-175 291.7646,-175"/>
<polygon fill="#000000" stroke="#000000" points="291.7646,-178.5001 301.7646,-175 291.7646,-171.5001 291.7646,-178.5001"/>
</g>
</g>
</svg>
